<?xml version="1.0" standalone="no"?>
<!DOCTYPE svg PUBLIC "-//W3C//DTD SVG 20010904//EN"
 "http://www.w3.org/TR/2001/REC-SVG-20010904/DTD/svg10.dtd">
<svg version="1.0" xmlns="http://www.w3.org/2000/svg"
 width="178.000000pt" height="178.000000pt" viewBox="0 0 178.000000 178.000000"
 preserveAspectRatio="xMidYMid meet">
<metadata>
Created by potrace 1.14, written by Peter Selinger 2001-2017
</metadata>
<g transform="translate(0.000000,178.000000) scale(0.100000,-0.100000)"
fill="#000000" stroke="none">
<path d="M778 1595 c-2 -3 -20 -6 -39 -8 -23 -2 -33 -8 -31 -18 1 -9 -3 -7
-13 5 -8 11 -15 15 -15 8 0 -6 -7 -9 -17 -5 -9 4 -14 2 -11 -3 3 -5 -8 -10
-26 -11 -17 -2 -40 -5 -51 -7 -11 -2 -24 -5 -28 -5 -5 -1 -6 -4 -4 -8 3 -5 -7
-9 -21 -9 -15 -1 -40 -7 -57 -15 -16 -7 -33 -13 -37 -13 -4 -1 -18 -10 -30
-21 -13 -10 -25 -19 -28 -18 -14 1 -58 -24 -79 -47 -13 -14 -20 -18 -16 -10 4
10 1 9 -8 -2 -8 -10 -18 -14 -22 -10 -5 4 -5 -1 -2 -11 4 -11 3 -16 -3 -12
-13 8 -72 -53 -64 -66 3 -5 -2 -6 -10 -3 -11 4 -16 0 -16 -15 0 -14 -5 -19
-15 -15 -11 4 -13 2 -9 -9 3 -10 -4 -22 -20 -32 -32 -22 -81 -123 -97 -204
-19 -98 -6 -230 31 -309 16 -35 39 -77 51 -94 l22 -30 -22 -81 c-13 -45 -38
-138 -57 -205 -20 -68 -34 -125 -32 -127 2 -2 100 33 218 77 l215 80 45 -17
c25 -9 53 -18 63 -20 9 -2 22 -7 29 -11 7 -5 8 -3 3 7 -7 11 -6 12 7 2 8 -7
18 -10 21 -6 4 3 7 1 7 -6 0 -8 7 -10 20 -6 11 4 20 2 20 -4 0 -6 9 -11 20
-11 11 0 20 6 20 13 0 8 3 7 10 -3 10 -16 25 -18 153 -24 53 -3 77 0 77 8 0 7
3 6 9 -2 9 -14 32 -13 43 3 5 6 8 5 8 -3 0 -7 5 -10 11 -6 6 3 25 8 42 9 18 2
43 6 57 9 14 4 41 9 60 12 19 3 42 8 50 11 8 3 23 8 33 10 10 1 31 10 47 18
16 8 37 15 47 15 10 -1 113 -36 228 -79 116 -44 211 -78 213 -76 1 1 -23 94
-54 205 -49 178 -55 206 -43 224 75 118 100 204 95 336 -3 98 -23 172 -58 223
-11 15 -17 27 -13 27 3 0 -11 14 -31 32 -20 17 -40 42 -45 55 -5 14 -13 21
-19 18 -5 -3 -7 0 -4 8 3 8 0 18 -7 23 -7 4 -10 3 -5 -4 3 -6 1 -14 -6 -18 -7
-4 -10 -4 -6 1 11 11 -11 47 -24 39 -6 -4 -8 -3 -5 2 3 6 2 16 -4 24 -7 13 -9
13 -9 0 -1 -9 -5 -6 -10 8 -5 12 -14 22 -20 22 -6 0 -8 -6 -4 -12 4 -8 3 -10
-2 -5 -5 5 -9 14 -9 20 0 7 -10 12 -22 11 -19 0 -21 2 -10 14 10 13 9 15 -11
10 -14 -4 -20 -2 -15 5 4 7 0 8 -13 3 -10 -4 -15 -4 -12 0 12 12 -16 33 -29
22 -10 -8 -13 -6 -13 6 0 10 -4 14 -10 11 -5 -3 -10 -1 -10 5 0 6 -4 8 -10 5
-5 -3 -10 -2 -10 3 0 8 -47 23 -66 21 -4 0 -11 5 -15 13 -7 11 -9 11 -9 0 0
-10 -4 -10 -15 2 -9 8 -23 12 -32 9 -11 -5 -14 -3 -8 6 5 10 2 11 -13 7 -11
-4 -23 -2 -27 4 -5 8 -12 7 -23 -2 -9 -7 -13 -8 -9 -2 4 7 -2 14 -13 17 -11 3
-18 2 -15 -2 2 -4 -2 -8 -10 -8 -8 0 -12 4 -9 9 3 5 -6 7 -20 4 -14 -3 -28 -1
-30 3 -6 9 -60 6 -77 -4 -8 -5 -10 -4 -5 3 4 7 1 12 -9 12 -9 0 -14 -4 -10 -9
3 -6 -7 -6 -27 0 -41 11 -41 11 -33 -1 4 -6 -2 -7 -18 -1 -17 7 -29 6 -37 -2
-10 -9 -11 -9 -6 1 7 11 -5 17 -16 7z m0 -1020 c-3 -3 -9 2 -12 12 -6 14 -5
15 5 6 7 -7 10 -15 7 -18z"/>
<path d="M1640 1281 c0 -6 4 -13 10 -16 6 -3 7 1 4 9 -7 18 -14 21 -14 7z"/>
</g>
</svg>
